<svg width="1440" height="394" viewBox="0 0 1440 394" fill="none" xmlns="http://www.w3.org/2000/svg">
<path d="M0 80.6788L80 59.3075C160 37.5349 320 -4.60567 480 0.411063C640 5.42779 800 59.6085 960 80.6788C1120 101.749 1280 91.7156 1360 85.9965L1440 80.6788V177H1360C1280 177 1120 177 960 177C800 177 640 177 480 177C320 177 160 177 80 177H0V80.6788Z" fill="#FD0786"/>
<path d="M1440 313.321L1360 334.693C1280 356.465 1120 398.606 960 393.589C800 388.572 640 334.392 480 313.321C320 292.251 160 302.285 80 308.004L-7.05316e-06 313.321L-1.54738e-05 217L80 217C160 217 320 217 480 217C640 217 800 217 960 217C1120 217 1280 217 1360 217L1440 217L1440 313.321Z" fill="#FD0786"/>
<rect y="172" width="1440" height="46" fill="#FD0786"/>
<g clip-path="url(#clip0_2001_1393)">
<path d="M163.371 225.695C165.781 224.702 167.702 222.781 168.695 220.371C169.689 222.781 171.609 224.702 174.02 225.695C171.609 226.689 169.689 228.609 168.695 231.02C167.702 228.609 165.781 226.689 163.371 225.695Z" stroke="#07D2FD" stroke-width="2"/>
<path d="M166.656 242.768C173.477 240.132 178.881 234.742 181.516 227.907C184.152 234.728 189.543 240.132 196.377 242.768C189.556 245.404 184.152 250.795 181.516 257.629C178.881 250.795 173.49 245.404 166.656 242.768Z" stroke="#07D2FD" stroke-width="2"/>
</g>
<g clip-path="url(#clip1_2001_1393)">
<path d="M308.5 79C309.4 79 310 78.4 310 77.5V74.5C310 73.6 309.4 73 308.5 73C307.6 73 307 73.6 307 74.5V77.5C307 78.4 307.6 79 308.5 79Z" fill="#07D2FD"/>
<path d="M314.5 79H311.5C310.6 79 310 79.6 310 80.5C310 81.4 310.6 82 311.5 82H314.5C315.4 82 316 81.4 316 80.5C316 79.6 315.4 79 314.5 79Z" fill="#07D2FD"/>
<path d="M308.5 82C307.6 82 307 82.6 307 83.5V86.5C307 87.4 307.6 88 308.5 88C309.4 88 310 87.4 310 86.5V83.5C310 82.6 309.4 82 308.5 82Z" fill="#07D2FD"/>
<path d="M305.5 79H302.5C301.6 79 301 79.6 301 80.5C301 81.4 301.6 82 302.5 82H305.5C306.4 82 307 81.4 307 80.5C307 79.6 306.4 79 305.5 79Z" fill="#07D2FD"/>
</g>
<g clip-path="url(#clip2_2001_1393)">
<path d="M1042.5 331C1043.4 331 1044 330.4 1044 329.5V326.5C1044 325.6 1043.4 325 1042.5 325C1041.6 325 1041 325.6 1041 326.5V329.5C1041 330.4 1041.6 331 1042.5 331Z" fill="#07D2FD"/>
<path d="M1048.5 331H1045.5C1044.6 331 1044 331.6 1044 332.5C1044 333.4 1044.6 334 1045.5 334H1048.5C1049.4 334 1050 333.4 1050 332.5C1050 331.6 1049.4 331 1048.5 331Z" fill="#07D2FD"/>
<path d="M1042.5 334C1041.6 334 1041 334.6 1041 335.5V338.5C1041 339.4 1041.6 340 1042.5 340C1043.4 340 1044 339.4 1044 338.5V335.5C1044 334.6 1043.4 334 1042.5 334Z" fill="#07D2FD"/>
<path d="M1039.5 331H1036.5C1035.6 331 1035 331.6 1035 332.5C1035 333.4 1035.6 334 1036.5 334H1039.5C1040.4 334 1041 333.4 1041 332.5C1041 331.6 1040.4 331 1039.5 331Z" fill="#07D2FD"/>
</g>
<g clip-path="url(#clip3_2001_1393)">
<path d="M1336.5 142C1337.4 142 1338 141.4 1338 140.5V137.5C1338 136.6 1337.4 136 1336.5 136C1335.6 136 1335 136.6 1335 137.5V140.5C1335 141.4 1335.6 142 1336.5 142Z" fill="#07D2FD"/>
<path d="M1342.5 142H1339.5C1338.6 142 1338 142.6 1338 143.5C1338 144.4 1338.6 145 1339.5 145H1342.5C1343.4 145 1344 144.4 1344 143.5C1344 142.6 1343.4 142 1342.5 142Z" fill="#07D2FD"/>
<path d="M1336.5 145C1335.6 145 1335 145.6 1335 146.5V149.5C1335 150.4 1335.6 151 1336.5 151C1337.4 151 1338 150.4 1338 149.5V146.5C1338 145.6 1337.4 145 1336.5 145Z" fill="#07D2FD"/>
<path d="M1333.5 142H1330.5C1329.6 142 1329 142.6 1329 143.5C1329 144.4 1329.6 145 1330.5 145H1333.5C1334.4 145 1335 144.4 1335 143.5C1335 142.6 1334.4 142 1333.5 142Z" fill="#07D2FD"/>
</g>
<defs>
<clipPath id="clip0_2001_1393">
<rect width="37.7483" height="40" fill="white" transform="translate(161 218)"/>
</clipPath>
<clipPath id="clip1_2001_1393">
<rect width="15" height="15" fill="white" transform="translate(301 73)"/>
</clipPath>
<clipPath id="clip2_2001_1393">
<rect width="15" height="15" fill="white" transform="translate(1035 325)"/>
</clipPath>
<clipPath id="clip3_2001_1393">
<rect width="15" height="15" fill="white" transform="translate(1329 136)"/>
</clipPath>
</defs>
</svg>
