<svg width="23" height="24" viewBox="0 0 23 24" fill="none" xmlns="http://www.w3.org/2000/svg">
<path d="M8.70342 23.8647C8.17837 23.8647 7.71561 23.6046 7.31515 23.0842L0.387116 14.1883C0.253627 14.0268 0.155736 13.8653 0.0934417 13.7038C0.0311472 13.5334 0 13.3674 0 13.2059C0 12.838 0.120139 12.5375 0.360418 12.3042C0.600696 12.0619 0.907719 11.9408 1.28149 11.9408C1.72645 11.9408 2.10911 12.1606 2.42948 12.6003L8.65003 20.8097L20.6373 1.55111C20.7974 1.29989 20.9621 1.12494 21.1312 1.02624C21.3003 0.918579 21.5183 0.864746 21.7853 0.864746C22.1501 0.864746 22.4438 0.976897 22.6663 1.2012C22.8888 1.4255 23 1.72158 23 2.08944C23 2.25094 22.9733 2.41243 22.9199 2.57393C22.8665 2.72646 22.782 2.89693 22.6663 3.08534L10.0517 23.1111C9.72238 23.6135 9.27297 23.8647 8.70342 23.8647Z" fill="#34C759"/>
</svg>
