<svg width="430" height="253" viewBox="0 0 430 253" fill="none" xmlns="http://www.w3.org/2000/svg">
<path d="M0 24.0112L23.8889 17.6508C47.7778 11.1709 95.5556 -1.37072 143.333 0.122338C191.111 1.61539 238.889 17.7404 286.667 24.0112C334.444 30.2821 382.222 27.296 406.111 25.5939L430 24.0112V52.6779H406.111C382.222 52.6779 334.444 52.6779 286.667 52.6779C238.889 52.6779 191.111 52.6779 143.333 52.6779C95.5556 52.6779 47.7778 52.6779 23.8889 52.6779H0V24.0112Z" fill="#FD0786"/>
<rect width="430" height="104.173" transform="translate(0 52.678)" fill="#FD0786"/>
<g clip-path="url(#clip0_2001_1637)">
<path d="M9.37085 115.143C11.7814 114.149 13.702 112.229 14.6954 109.818C15.6887 112.229 17.6093 114.149 20.0199 115.143C17.6093 116.136 15.6887 118.057 14.6954 120.467C13.702 118.057 11.7814 116.136 9.37085 115.143Z" stroke="#07D2FD" stroke-width="2"/>
<path d="M12.6556 132.216C19.4768 129.58 24.8808 124.189 27.5166 117.355C30.1523 124.176 35.5431 129.58 42.3775 132.216C35.5563 134.851 30.1523 140.242 27.5166 147.077C24.8808 140.242 19.4901 134.851 12.6556 132.216Z" stroke="#07D2FD" stroke-width="2"/>
</g>
<g clip-path="url(#clip1_2001_1637)">
<path d="M368.5 145.448C369.4 145.448 370 144.848 370 143.948V140.948C370 140.048 369.4 139.448 368.5 139.448C367.6 139.448 367 140.048 367 140.948V143.948C367 144.848 367.6 145.448 368.5 145.448Z" fill="#07D2FD"/>
<path d="M374.5 145.448H371.5C370.6 145.448 370 146.048 370 146.948C370 147.848 370.6 148.448 371.5 148.448H374.5C375.4 148.448 376 147.848 376 146.948C376 146.048 375.4 145.448 374.5 145.448Z" fill="#07D2FD"/>
<path d="M368.5 148.448C367.6 148.448 367 149.048 367 149.948V152.948C367 153.848 367.6 154.448 368.5 154.448C369.4 154.448 370 153.848 370 152.948V149.948C370 149.048 369.4 148.448 368.5 148.448Z" fill="#07D2FD"/>
<path d="M365.5 145.448H362.5C361.6 145.448 361 146.048 361 146.948C361 147.848 361.6 148.448 362.5 148.448H365.5C366.4 148.448 367 147.848 367 146.948C367 146.048 366.4 145.448 365.5 145.448Z" fill="#07D2FD"/>
</g>
<g clip-path="url(#clip2_2001_1637)">
<path d="M403.5 68.4475C404.4 68.4475 405 67.8475 405 66.9475V63.9475C405 63.0475 404.4 62.4475 403.5 62.4475C402.6 62.4475 402 63.0475 402 63.9475V66.9475C402 67.8475 402.6 68.4475 403.5 68.4475Z" fill="#07D2FD"/>
<path d="M409.5 68.4475H406.5C405.6 68.4475 405 69.0475 405 69.9475C405 70.8475 405.6 71.4475 406.5 71.4475H409.5C410.4 71.4475 411 70.8475 411 69.9475C411 69.0475 410.4 68.4475 409.5 68.4475Z" fill="#07D2FD"/>
<path d="M403.5 71.4475C402.6 71.4475 402 72.0475 402 72.9475V75.9475C402 76.8475 402.6 77.4475 403.5 77.4475C404.4 77.4475 405 76.8475 405 75.9475V72.9475C405 72.0475 404.4 71.4475 403.5 71.4475Z" fill="#07D2FD"/>
<path d="M400.5 68.4475H397.5C396.6 68.4475 396 69.0475 396 69.9475C396 70.8475 396.6 71.4475 397.5 71.4475H400.5C401.4 71.4475 402 70.8475 402 69.9475C402 69.0475 401.4 68.4475 400.5 68.4475Z" fill="#07D2FD"/>
</g>
<g clip-path="url(#clip3_2001_1637)">
<path d="M58.5 60.4475C59.4 60.4475 60 59.8475 60 58.9475V55.9475C60 55.0475 59.4 54.4475 58.5 54.4475C57.6 54.4475 57 55.0475 57 55.9475V58.9475C57 59.8475 57.6 60.4475 58.5 60.4475Z" fill="#07D2FD"/>
<path d="M64.5 60.4475H61.5C60.6 60.4475 60 61.0475 60 61.9475C60 62.8475 60.6 63.4475 61.5 63.4475H64.5C65.4 63.4475 66 62.8475 66 61.9475C66 61.0475 65.4 60.4475 64.5 60.4475Z" fill="#07D2FD"/>
<path d="M58.5 63.4475C57.6 63.4475 57 64.0475 57 64.9475V67.9475C57 68.8475 57.6 69.4475 58.5 69.4475C59.4 69.4475 60 68.8475 60 67.9475V64.9475C60 64.0475 59.4 63.4475 58.5 63.4475Z" fill="#07D2FD"/>
<path d="M55.5 60.4475H52.5C51.6 60.4475 51 61.0475 51 61.9475C51 62.8475 51.6 63.4475 52.5 63.4475H55.5C56.4 63.4475 57 62.8475 57 61.9475C57 61.0475 56.4 60.4475 55.5 60.4475Z" fill="#07D2FD"/>
</g>
<g clip-path="url(#clip4_2001_1637)">
<rect width="430" height="95.5556" transform="translate(0 156.852)" fill="#FD0786"/>
<path d="M0 185.518H23.8889C47.7778 185.518 95.5556 185.518 143.333 193.491C191.111 201.345 238.889 217.47 286.667 212.602C334.444 207.914 382.222 182.234 406.111 169.602L430 156.852V252.407H406.111C382.222 252.407 334.444 252.407 286.667 252.407C238.889 252.407 191.111 252.407 143.333 252.407C95.5556 252.407 47.7778 252.407 23.8889 252.407H0V185.518Z" fill="#FFF3F9"/>
</g>
<defs>
<clipPath id="clip0_2001_1637">
<rect width="37.7483" height="40" fill="white" transform="translate(7 107.448)"/>
</clipPath>
<clipPath id="clip1_2001_1637">
<rect width="15" height="15" fill="white" transform="translate(361 139.448)"/>
</clipPath>
<clipPath id="clip2_2001_1637">
<rect width="15" height="15" fill="white" transform="translate(396 62.4475)"/>
</clipPath>
<clipPath id="clip3_2001_1637">
<rect width="15" height="15" fill="white" transform="translate(51 54.4475)"/>
</clipPath>
<clipPath id="clip4_2001_1637">
<rect width="430" height="95.5556" fill="white" transform="translate(0 156.852)"/>
</clipPath>
</defs>
</svg>
