<svg width="40" height="40" viewBox="0 0 40 40" fill="none" xmlns="http://www.w3.org/2000/svg">
<path d="M20 40C17.268 40 14.6928 39.4771 12.2745 38.4314C9.86928 37.3856 7.7451 35.9412 5.90196 34.098C4.05882 32.2549 2.61438 30.1307 1.56863 27.7255C0.522876 25.3072 0 22.732 0 20C0 17.268 0.522876 14.6993 1.56863 12.2941C2.61438 9.87582 4.05229 7.7451 5.88235 5.90196C7.72549 4.05882 9.84967 2.61438 12.2549 1.56863C14.6732 0.522876 17.2484 0 19.9804 0C22.7124 0 25.2876 0.522876 27.7059 1.56863C30.1242 2.61438 32.2549 4.05882 34.098 5.90196C35.9412 7.7451 37.3856 9.87582 38.4314 12.2941C39.4771 14.6993 40 17.268 40 20C40 22.732 39.4771 25.3072 38.4314 27.7255C37.3856 30.1307 35.9412 32.2549 34.098 34.098C32.2549 35.9412 30.1242 37.3856 27.7059 38.4314C25.3007 39.4771 22.732 40 20 40ZM20 36.6667C22.3137 36.6667 24.4771 36.2353 26.4902 35.3726C28.5033 34.5098 30.2745 33.3203 31.8039 31.8039C33.3333 30.2745 34.5229 28.5033 35.3726 26.4902C36.2353 24.4771 36.6667 22.3137 36.6667 20C36.6667 17.6863 36.2353 15.5229 35.3726 13.5098C34.5098 11.4967 33.3137 9.72549 31.7843 8.19608C30.268 6.66667 28.4967 5.47712 26.4706 4.62745C24.4575 3.76471 22.2941 3.33333 19.9804 3.33333C17.6667 3.33333 15.5033 3.76471 13.4902 4.62745C11.4771 5.47712 9.71242 6.66667 8.19608 8.19608C6.67974 9.72549 5.4902 11.4967 4.62745 13.5098C3.77778 15.5229 3.35294 17.6863 3.35294 20C3.35294 22.3137 3.77778 24.4771 4.62745 26.4902C5.4902 28.5033 6.67974 30.2745 8.19608 31.8039C9.72549 33.3203 11.4967 34.5098 13.5098 35.3726C15.5229 36.2353 17.6863 36.6667 20 36.6667ZM16.3333 27.6667C16.0327 27.8497 15.732 27.9281 15.4314 27.902C15.1307 27.8758 14.8758 27.7712 14.6667 27.5882C14.4706 27.3922 14.3725 27.1373 14.3725 26.8235V13.1961C14.3725 12.8824 14.4771 12.634 14.6863 12.451C14.8954 12.268 15.1503 12.1699 15.451 12.1569C15.7647 12.1307 16.0588 12.1961 16.3333 12.3529L27.5098 18.9804C27.7712 19.1373 27.9477 19.3529 28.0392 19.6275C28.1307 19.8889 28.1307 20.1569 28.0392 20.4314C27.9608 20.6928 27.7843 20.9085 27.5098 21.0784L16.3333 27.6667Z" fill="white"/>
</svg>
