<svg width="17" height="20" viewBox="0 0 17 20" fill="none" xmlns="http://www.w3.org/2000/svg">
<path d="M9.57529 20C9.40941 20 9.26641 19.9428 9.14629 19.8284C9.02617 19.7197 8.95181 19.5796 8.92321 19.408C8.78021 18.4985 8.63149 17.7349 8.47705 17.1171C8.32261 16.4994 8.12241 15.9931 7.87645 15.5985C7.63621 15.2038 7.32161 14.8892 6.93265 14.6547C6.54369 14.4144 6.04605 14.2228 5.43973 14.0798C4.83913 13.9311 4.09266 13.7967 3.20034 13.6765C3.02302 13.6537 2.87716 13.5822 2.76276 13.462C2.64836 13.3362 2.59116 13.1875 2.59116 13.0159C2.59116 12.8443 2.64836 12.6984 2.76276 12.5783C2.87716 12.4525 3.02588 12.3781 3.20892 12.3552C4.09552 12.258 4.84199 12.1407 5.44831 12.0034C6.06035 11.8662 6.56371 11.6774 6.95839 11.4372C7.35307 11.1912 7.67339 10.868 7.91935 10.4676C8.16531 10.0672 8.36265 9.55527 8.51137 8.93179C8.66009 8.30831 8.79737 7.53897 8.92321 6.62377C8.95181 6.45217 9.02617 6.31203 9.14629 6.20335C9.26641 6.09467 9.40941 6.04033 9.57529 6.04033C9.74117 6.04033 9.88417 6.09467 10.0043 6.20335C10.1244 6.31203 10.1988 6.45217 10.2274 6.62377C10.3647 7.53897 10.5105 8.30831 10.665 8.93179C10.8194 9.54955 11.0167 10.0586 11.257 10.459C11.5029 10.8537 11.8204 11.1712 12.2094 11.4114C12.604 11.6517 13.1017 11.8433 13.7023 11.9863C14.3086 12.1236 15.0579 12.2465 15.9502 12.3552C16.1276 12.3838 16.2734 12.461 16.3878 12.5869C16.5022 12.707 16.5594 12.85 16.5594 13.0159C16.5594 13.1875 16.5022 13.3362 16.3878 13.462C16.2734 13.5879 16.1247 13.6594 15.9417 13.6765C15.0551 13.7738 14.3057 13.8939 13.6937 14.0369C13.0874 14.1742 12.584 14.3629 12.1836 14.6032C11.7889 14.8377 11.4715 15.158 11.2312 15.5641C10.991 15.9645 10.7937 16.4765 10.6392 17.1C10.4905 17.7292 10.3532 18.4985 10.2274 19.408C10.1988 19.5796 10.1244 19.7197 10.0043 19.8284C9.88989 19.9428 9.74689 20 9.57529 20ZM3.432 10.4505C3.2032 10.4505 3.0745 10.3275 3.0459 10.0815C2.97726 9.52095 2.90576 9.08051 2.8314 8.76019C2.76276 8.43987 2.6455 8.19963 2.47962 8.03947C2.31374 7.87359 2.06778 7.75061 1.74174 7.67053C1.4157 7.58473 0.963821 7.49893 0.3861 7.41313C0.1287 7.37309 0 7.24439 0 7.02703C0 6.80967 0.1144 6.68097 0.3432 6.64093C0.926641 6.53225 1.38424 6.43501 1.716 6.34921C2.05348 6.26341 2.30516 6.14043 2.47104 5.98027C2.63692 5.82011 2.75704 5.58559 2.8314 5.27671C2.90576 4.96211 2.97726 4.52738 3.0459 3.97254C3.0745 3.72658 3.2032 3.6036 3.432 3.6036C3.6608 3.6036 3.7895 3.72086 3.8181 3.95538C3.89246 4.5331 3.96682 4.98499 4.04118 5.31103C4.11554 5.63707 4.2328 5.88303 4.39296 6.04891C4.55884 6.20907 4.80766 6.32919 5.13943 6.40927C5.47119 6.48363 5.93165 6.56085 6.52081 6.64093C6.61805 6.65237 6.69813 6.69527 6.76105 6.76963C6.82969 6.83827 6.86401 6.92407 6.86401 7.02703C6.86401 7.23867 6.75247 7.36737 6.52939 7.41313C5.93451 7.51609 5.47119 7.61333 5.13943 7.70485C4.80766 7.79065 4.55884 7.91363 4.39296 8.07379C4.2328 8.23395 4.11554 8.47133 4.04118 8.78593C3.96682 9.10053 3.89246 9.53811 3.8181 10.0987C3.80666 10.2016 3.76376 10.2874 3.6894 10.3561C3.62076 10.419 3.53496 10.4505 3.432 10.4505ZM7.61047 4.29C7.46747 4.29 7.38453 4.21564 7.36165 4.06692C7.30445 3.718 7.25297 3.4463 7.20721 3.25182C7.16145 3.05734 7.08709 2.90862 6.98413 2.80566C6.88689 2.7027 6.73817 2.62548 6.53797 2.574C6.33777 2.5168 6.05463 2.45674 5.68855 2.39382C5.53411 2.36522 5.45689 2.28228 5.45689 2.145C5.45689 2.01344 5.53125 1.9305 5.67997 1.89618C6.04605 1.82754 6.33205 1.76462 6.53797 1.70742C6.74389 1.65022 6.89547 1.573 6.99271 1.47576C7.09567 1.3728 7.16717 1.22408 7.20721 1.0296C7.25297 0.835121 7.30445 0.569141 7.36165 0.23166C7.38453 0.0772201 7.46747 0 7.61047 0C7.74775 0 7.82783 0.0743601 7.85071 0.22308C7.90791 0.572001 7.95939 0.846561 8.00515 1.04676C8.05091 1.24696 8.12241 1.39854 8.21965 1.5015C8.32261 1.59874 8.47419 1.67596 8.67439 1.73316C8.88031 1.78464 9.16631 1.83898 9.53239 1.89618C9.68111 1.92478 9.75547 2.00772 9.75547 2.145C9.75547 2.28228 9.68397 2.36522 9.54097 2.39382C9.16917 2.46246 8.88031 2.52538 8.67439 2.58258C8.47419 2.63978 8.32547 2.71986 8.22823 2.82282C8.13099 2.92578 8.05663 3.0745 8.00515 3.26898C7.95939 3.46346 7.90791 3.7323 7.85071 4.0755C7.82783 4.2185 7.74775 4.29 7.61047 4.29Z" fill="#B3628C"/>
</svg>
