<svg width="13" height="14" viewBox="0 0 13 14" fill="none" xmlns="http://www.w3.org/2000/svg">
<path d="M9.18191 5.05371C10.0859 5.69956 11.1933 6.07956 12.3893 6.07956V3.77921C12.1629 3.77926 11.9372 3.75567 11.7157 3.70877V5.51948C10.5198 5.51948 9.41253 5.13947 8.50833 4.49367V9.18803C8.50833 11.5364 6.60365 13.44 4.25423 13.44C3.37761 13.44 2.56283 13.1751 1.88599 12.7208C2.65849 13.5103 3.7358 14 4.92766 14C7.27722 14 9.182 12.0964 9.182 9.74797V5.05371H9.18191ZM10.0128 2.73293C9.55086 2.22848 9.24754 1.57658 9.18191 0.855872V0.559998H8.5436C8.70427 1.47602 9.2523 2.25861 10.0128 2.73293ZM3.37199 10.9187C3.11388 10.5805 2.9744 10.1667 2.97502 9.74124C2.97502 8.6672 3.84622 7.79634 4.92103 7.79634C5.12134 7.79629 5.32045 7.82695 5.51134 7.88749V5.53572C5.28826 5.50516 5.06311 5.49219 4.83805 5.49694V7.32745C4.64702 7.26691 4.44782 7.23616 4.24746 7.23635C3.17264 7.23635 2.3015 8.10711 2.3015 9.1813C2.3015 9.94083 2.73695 10.5984 3.37199 10.9187Z" fill="#FF004F"/>
<path d="M8.5084 4.49362C9.4126 5.13943 10.5199 5.51943 11.7158 5.51943V3.70872C11.0482 3.5666 10.4572 3.21792 10.0129 2.73293C9.25232 2.25856 8.70434 1.47597 8.54367 0.559998H6.86701V9.74787C6.86322 10.819 5.99352 11.6863 4.92101 11.6863C4.28899 11.6863 3.72751 11.3852 3.37192 10.9187C2.73692 10.5984 2.30147 9.94078 2.30147 9.18135C2.30147 8.10725 3.17262 7.2364 4.24743 7.2364C4.45336 7.2364 4.65185 7.26845 4.83803 7.3275V5.49699C2.52989 5.54466 0.673584 7.42964 0.673584 9.74792C0.673584 10.9052 1.13585 11.9543 1.8861 12.7208C2.56294 13.1751 3.37773 13.44 4.25435 13.44C6.60381 13.44 8.50845 11.5363 8.50845 9.18803V4.49362H8.5084Z" fill="white"/>
<path d="M11.7157 3.70872V3.21912C11.1138 3.22003 10.5236 3.05153 10.0128 2.73288C10.465 3.22762 11.0603 3.56875 11.7157 3.70872ZM8.54361 0.55999C8.52828 0.472448 8.51651 0.38433 8.50834 0.295875V0L6.19333 0V9.18797C6.18963 10.2589 5.31998 11.1262 4.24737 11.1262C3.93247 11.1262 3.63516 11.0515 3.37186 10.9188C3.72745 11.3852 4.28893 11.6862 4.92095 11.6862C5.99336 11.6862 6.86321 10.819 6.86696 9.74791V0.55999L8.54361 0.55999ZM4.83807 5.49698V4.97577C4.64463 4.94934 4.4496 4.93608 4.25434 4.93618C1.90469 4.93613 0 6.83981 0 9.18797C0 10.6601 0.748576 11.9576 1.88609 12.7207C1.13584 11.9542 0.673574 10.9051 0.673574 9.74787C0.673574 7.42964 2.52983 5.54465 4.83807 5.49698Z" fill="#00F2EA"/>
</svg>
